<svg xmlns="http://www.w3.org/2000/svg" viewBox="0 0 128 80">
  <defs>
    <linearGradient id="coatBody" x1="0" y1="0" x2="1" y2="1">
      <stop offset="0" stop-color="#2a2d34"/>
      <stop offset="0.45" stop-color="#14171d"/>
      <stop offset="1" stop-color="#090b10"/>
    </linearGradient>
    <linearGradient id="legBody" x1="0" y1="0" x2="0" y2="1">
      <stop offset="0" stop-color="#1f232a"/>
      <stop offset="1" stop-color="#080a0e"/>
    </linearGradient>
    <linearGradient id="collarBody" x1="0" y1="0" x2="1" y2="0">
      <stop offset="0" stop-color="#8b5cf6"/>
      <stop offset="1" stop-color="#a855f7"/>
    </linearGradient>
  </defs>

  <ellipse cx="62" cy="72" rx="42" ry="7" fill="#0b1324" opacity="0.34"/>

  <path d="M20 44 C8 39 9 29 14 25" stroke="#12161c" stroke-width="6" fill="none" stroke-linecap="round"/>

  <path d="M22 40 C24 33 31 30 40 31 L78 32 C88 32 94 36 95 43 C96 49 92 56 83 58 L35 58 C27 57 22 50 22 40 Z" fill="url(#coatBody)"/>

  <ellipse cx="55" cy="49" rx="10" ry="9" fill="#f1f5f9"/>
  <path d="M45 49 C48 58 62 60 66 49 C63 42 49 42 45 49 Z" fill="#e2e8f0" opacity="0.78"/>

  <rect x="35" y="57" width="9" height="14" rx="3" fill="url(#legBody)"/>
  <rect x="66" y="57" width="9" height="14" rx="3" fill="url(#legBody)"/>

  <path d="M72 35 C76 33 83 33 86 36 C88 38 87 41 85 43 C82 45 76 45 72 43 Z" fill="url(#collarBody)"/>
  <circle cx="84" cy="42.5" r="2" fill="#d1d5db"/>

  <path d="M69 32 C73 28 80 27 85 30" stroke="#2f3440" stroke-width="2" fill="none" stroke-linecap="round"/>
</svg>
