<svg xmlns="http://www.w3.org/2000/svg" viewBox="0 0 128 80">
  <defs>
    <linearGradient id="coatCombined" x1="0" y1="0" x2="1" y2="1">
      <stop offset="0" stop-color="#2a2d34"/>
      <stop offset="0.45" stop-color="#14171d"/>
      <stop offset="1" stop-color="#090b10"/>
    </linearGradient>
    <radialGradient id="muzzleCombined" cx="0.35" cy="0.4" r="0.95">
      <stop offset="0" stop-color="#3f4650"/>
      <stop offset="1" stop-color="#191d24"/>
    </radialGradient>
  </defs>

  <ellipse cx="62" cy="72" rx="42" ry="7" fill="#0b1324" opacity="0.34"/>
  <path d="M20 44 C8 39 9 29 14 25" stroke="#12161c" stroke-width="6" fill="none" stroke-linecap="round"/>
  <path d="M22 40 C24 33 31 30 40 31 L78 32 C88 32 94 36 95 43 C96 49 92 56 83 58 L35 58 C27 57 22 50 22 40 Z" fill="url(#coatCombined)"/>
  <ellipse cx="55" cy="49" rx="10" ry="9" fill="#f1f5f9"/>
  <rect x="35" y="57" width="9" height="14" rx="3" fill="#0f1319"/>
  <rect x="66" y="57" width="9" height="14" rx="3" fill="#0f1319"/>

  <path d="M74 20 C77 13 83 10 90 10 C97 10 103 13 106 20 C108 26 108 33 104 38 C100 43 95 46 90 46 C84 46 79 43 76 38 C73 33 72 26 74 20 Z" fill="url(#coatCombined)"/>
  <path d="M76 14 C72 13 70 18 72 23 C74 27 77 28 80 26 C82 24 82 18 80 15 C79 14 78 14 76 14 Z" fill="#11151b"/>
  <path d="M100 13 C105 12 109 17 108 23 C107 29 103 30 99 27 C97 25 97 20 98 17 C99 15 99 14 100 13 Z" fill="#11151b"/>
  <path d="M89 25 C94 25 99 28 101 32 C103 36 100 39 95 41 C90 43 84 42 81 38 C79 34 81 29 85 27 C86 26 87 25 89 25 Z" fill="url(#muzzleCombined)"/>
  <ellipse cx="98" cy="33" rx="4.8" ry="4" fill="#12161c"/>
  <ellipse cx="87" cy="27" rx="3.8" ry="3.6" fill="#d4d8de"/>
  <ellipse cx="87.2" cy="27.2" rx="1.9" ry="1.8" fill="#8b5a33"/>

  <path d="M72 35 C76 33 83 33 86 36 C88 38 87 41 85 43 C82 45 76 45 72 43 Z" fill="#9f67ff"/>
  <circle cx="84" cy="42.5" r="2" fill="#d1d5db"/>
</svg>
