<svg xmlns="http://www.w3.org/2000/svg" viewBox="0 0 64 48">
  <defs>
    <linearGradient id="coatHead" x1="0" y1="0" x2="1" y2="1">
      <stop offset="0" stop-color="#2b2e35"/>
      <stop offset="0.55" stop-color="#14171d"/>
      <stop offset="1" stop-color="#090b10"/>
    </linearGradient>
    <linearGradient id="earHead" x1="0" y1="0" x2="0" y2="1">
      <stop offset="0" stop-color="#20242d"/>
      <stop offset="1" stop-color="#07090d"/>
    </linearGradient>
    <radialGradient id="muzzleHead" cx="0.35" cy="0.35" r="0.95">
      <stop offset="0" stop-color="#3f4650"/>
      <stop offset="1" stop-color="#191d24"/>
    </radialGradient>
  </defs>

  <path d="M14 9 C8 8 6 17 9 25 C11 30 15 32 19 30 C21 29 22 26 22 22 C22 15 19 10 14 9 Z" fill="url(#earHead)"/>
  <path d="M42 8 C49 7 55 15 53 24 C51 31 46 33 41 30 C38 28 37 23 38 18 C39 12 40 9 42 8 Z" fill="url(#earHead)"/>

  <path d="M14 16 C16 8 23 5 31 5 C39 5 46 8 49 16 C51 23 50 31 45 36 C41 41 36 44 31 44 C25 44 20 41 16 36 C12 31 11 22 14 16 Z" fill="url(#coatHead)"/>

  <path d="M30 20 C36 20 42 24 44 29 C46 34 43 38 36 40 C30 42 23 41 20 36 C17 31 20 25 25 22 C26 21 28 20 30 20 Z" fill="url(#muzzleHead)"/>
  <ellipse cx="41" cy="30" rx="5.2" ry="4.3" fill="#12161c"/>
  <ellipse cx="41.8" cy="30.4" rx="1.5" ry="1.2" fill="#05070a"/>

  <ellipse cx="30" cy="22" rx="4.7" ry="4.4" fill="#d4d8de"/>
  <ellipse cx="30.4" cy="22.2" rx="2.4" ry="2.2" fill="#8b5a33"/>
  <circle cx="30.8" cy="22.1" r="1.3" fill="#20150c"/>
  <circle cx="29.8" cy="21.1" r="0.5" fill="#f8fafc"/>

  <path d="M24 17 C26 13 30 11 34 12" stroke="#5d636f" stroke-width="1.3" fill="none" stroke-linecap="round"/>
  <path d="M21 37 C24 40 27 42 31 42 C34 42 37 40 39 38" stroke="#cbd5e1" stroke-width="1" opacity="0.35" fill="none"/>
</svg>
